<?xml version="1.0" encoding="UTF-8" standalone="no"?>
<svg
   width="460.8pt"
   height="345.6pt"
   viewBox="0 0 460.8 345.6"
   version="1.1"
   id="svg122"
   sodipodi:docname="Elevator_sbm_1000_100xp_outdegree.svg"
   xmlns:inkscape="http://www.inkscape.org/namespaces/inkscape"
   xmlns:sodipodi="http://sodipodi.sourceforge.net/DTD/sodipodi-0.dtd"
   xmlns:xlink="http://www.w3.org/1999/xlink"
   xmlns="http://www.w3.org/2000/svg"
   xmlns:svg="http://www.w3.org/2000/svg">
  <sodipodi:namedview
     id="namedview122"
     pagecolor="#ffffff"
     bordercolor="#000000"
     borderopacity="0.25"
     inkscape:showpageshadow="2"
     inkscape:pageopacity="0.0"
     inkscape:pagecheckerboard="0"
     inkscape:deskcolor="#d1d1d1"
     inkscape:document-units="pt" />
  <defs
     id="defs37">
    <g
       id="g21">
      <g
         id="glyph-0-0">
        <path
           d="M 3.175781 -6.632812 C 2.667969 -6.632812 2.289062 -6.382812 2.027344 -5.882812 C 1.769531 -5.382812 1.648438 -4.632812 1.648438 -3.636719 C 1.648438 -2.636719 1.769531 -1.886719 2.027344 -1.386719 C 2.289062 -0.890625 2.667969 -0.640625 3.175781 -0.640625 C 3.6875 -0.640625 4.066406 -0.890625 4.324219 -1.386719 C 4.574219 -1.886719 4.703125 -2.636719 4.703125 -3.636719 C 4.703125 -4.632812 4.574219 -5.382812 4.324219 -5.882812 C 4.066406 -6.382812 3.6875 -6.632812 3.175781 -6.632812 Z M 3.175781 -7.410156 C 3.984375 -7.410156 4.605469 -7.082031 5.042969 -6.441406 C 5.472656 -5.792969 5.695312 -4.855469 5.695312 -3.636719 C 5.695312 -2.40625 5.472656 -1.46875 5.042969 -0.828125 C 4.605469 -0.191406 3.984375 0.128906 3.167969 0.128906 C 2.347656 0.128906 1.726562 -0.191406 1.296875 -0.828125 C 0.867188 -1.46875 0.660156 -2.40625 0.660156 -3.636719 C 0.660156 -4.855469 0.867188 -5.792969 1.296875 -6.441406 C 1.726562 -7.082031 2.355469 -7.410156 3.175781 -7.410156 Z M 3.175781 -7.410156 "
           id="path1" />
      </g>
      <g
         id="glyph-0-1">
        <path
           d="M 1.078125 -7.28125 L 4.945312 -7.28125 L 4.945312 -6.453125 L 1.976562 -6.453125 L 1.976562 -4.664062 C 2.117188 -4.714844 2.265625 -4.753906 2.40625 -4.773438 C 2.546875 -4.792969 2.695312 -4.8125 2.835938 -4.8125 C 3.644531 -4.8125 4.285156 -4.585938 4.765625 -4.144531 C 5.242188 -3.695312 5.484375 -3.097656 5.484375 -2.335938 C 5.484375 -1.546875 5.234375 -0.9375 4.746094 -0.507812 C 4.253906 -0.078125 3.566406 0.128906 2.6875 0.128906 C 2.378906 0.128906 2.066406 0.101562 1.746094 0.0585938 C 1.429688 0.0117188 1.109375 -0.0585938 0.769531 -0.167969 L 0.769531 -1.160156 C 1.058594 -1 1.359375 -0.878906 1.679688 -0.800781 C 1.988281 -0.71875 2.316406 -0.6875 2.667969 -0.6875 C 3.226562 -0.6875 3.675781 -0.828125 4.003906 -1.128906 C 4.324219 -1.429688 4.496094 -1.828125 4.496094 -2.335938 C 4.496094 -2.835938 4.324219 -3.234375 4.003906 -3.535156 C 3.675781 -3.835938 3.226562 -3.984375 2.667969 -3.984375 C 2.40625 -3.984375 2.136719 -3.957031 1.878906 -3.894531 C 1.617188 -3.835938 1.347656 -3.746094 1.078125 -3.625 Z M 1.078125 -7.28125 "
           id="path2" />
      </g>
      <g
         id="glyph-0-2">
        <path
           d="M 1.238281 -0.828125 L 2.847656 -0.828125 L 2.847656 -6.382812 L 1.097656 -6.03125 L 1.097656 -6.933594 L 2.835938 -7.28125 L 3.824219 -7.28125 L 3.824219 -0.828125 L 5.433594 -0.828125 L 5.433594 0 L 1.238281 0 Z M 1.238281 -0.828125 "
           id="path3" />
      </g>
      <g
         id="glyph-0-3">
        <path
           d="M 1.917969 -0.828125 L 5.355469 -0.828125 L 5.355469 0 L 0.730469 0 L 0.730469 -0.828125 C 1.097656 -1.207031 1.609375 -1.726562 2.257812 -2.386719 C 2.898438 -3.035156 3.304688 -3.457031 3.476562 -3.644531 C 3.796875 -3.996094 4.015625 -4.296875 4.136719 -4.542969 C 4.253906 -4.785156 4.324219 -5.035156 4.324219 -5.273438 C 4.324219 -5.652344 4.183594 -5.972656 3.914062 -6.210938 C 3.644531 -6.453125 3.296875 -6.582031 2.855469 -6.582031 C 2.546875 -6.582031 2.21875 -6.523438 1.878906 -6.421875 C 1.539062 -6.3125 1.167969 -6.152344 0.777344 -5.933594 L 0.777344 -6.933594 C 1.179688 -7.089844 1.546875 -7.210938 1.886719 -7.292969 C 2.226562 -7.371094 2.546875 -7.410156 2.835938 -7.410156 C 3.585938 -7.410156 4.183594 -7.222656 4.632812 -6.84375 C 5.085938 -6.460938 5.3125 -5.964844 5.3125 -5.332031 C 5.3125 -5.035156 5.253906 -4.746094 5.144531 -4.484375 C 5.035156 -4.214844 4.835938 -3.894531 4.535156 -3.535156 C 4.453125 -3.4375 4.195312 -3.167969 3.753906 -2.71875 C 3.316406 -2.265625 2.707031 -1.636719 1.917969 -0.828125 Z M 1.917969 -0.828125 "
           id="path4" />
      </g>
      <g
         id="glyph-0-4">
        <path
           d="M 4.054688 -3.925781 C 4.523438 -3.824219 4.894531 -3.617188 5.152344 -3.296875 C 5.414062 -2.976562 5.554688 -2.578125 5.554688 -2.117188 C 5.554688 -1.398438 5.304688 -0.839844 4.8125 -0.449219 C 4.316406 -0.0585938 3.617188 0.128906 2.707031 0.128906 C 2.398438 0.128906 2.078125 0.101562 1.757812 0.0390625 C 1.4375 -0.0117188 1.097656 -0.101562 0.757812 -0.21875 L 0.757812 -1.167969 C 1.027344 -1.007812 1.328125 -0.890625 1.65625 -0.808594 C 1.976562 -0.730469 2.316406 -0.6875 2.675781 -0.6875 C 3.296875 -0.6875 3.765625 -0.808594 4.085938 -1.046875 C 4.40625 -1.289062 4.574219 -1.648438 4.574219 -2.117188 C 4.574219 -2.535156 4.425781 -2.875 4.125 -3.117188 C 3.824219 -3.355469 3.40625 -3.484375 2.867188 -3.484375 L 2.019531 -3.484375 L 2.019531 -4.296875 L 2.90625 -4.296875 C 3.386719 -4.296875 3.753906 -4.386719 4.015625 -4.585938 C 4.273438 -4.773438 4.40625 -5.054688 4.40625 -5.421875 C 4.40625 -5.792969 4.265625 -6.082031 4.003906 -6.28125 C 3.734375 -6.484375 3.355469 -6.582031 2.867188 -6.582031 C 2.597656 -6.582031 2.308594 -6.550781 1.996094 -6.492188 C 1.6875 -6.433594 1.347656 -6.34375 0.980469 -6.222656 L 0.980469 -7.101562 C 1.347656 -7.203125 1.699219 -7.28125 2.027344 -7.332031 C 2.347656 -7.382812 2.65625 -7.410156 2.957031 -7.410156 C 3.695312 -7.410156 4.285156 -7.242188 4.722656 -6.902344 C 5.164062 -6.5625 5.382812 -6.101562 5.382812 -5.523438 C 5.382812 -5.125 5.265625 -4.785156 5.035156 -4.503906 C 4.804688 -4.226562 4.476562 -4.023438 4.054688 -3.925781 Z M 4.054688 -3.925781 "
           id="path5" />
      </g>
      <g
         id="glyph-0-5">
        <path
           d="M 3.054688 -4.835938 C 2.578125 -4.835938 2.199219 -4.644531 1.917969 -4.265625 C 1.636719 -3.886719 1.5 -3.375 1.5 -2.726562 C 1.5 -2.066406 1.628906 -1.558594 1.90625 -1.179688 C 2.1875 -0.800781 2.566406 -0.621094 3.054688 -0.621094 C 3.535156 -0.621094 3.914062 -0.800781 4.195312 -1.179688 C 4.476562 -1.558594 4.613281 -2.066406 4.613281 -2.726562 C 4.613281 -3.367188 4.476562 -3.886719 4.195312 -4.265625 C 3.914062 -4.644531 3.535156 -4.835938 3.054688 -4.835938 Z M 3.054688 -5.59375 C 3.835938 -5.59375 4.445312 -5.332031 4.894531 -4.835938 C 5.332031 -4.324219 5.5625 -3.625 5.5625 -2.726562 C 5.5625 -1.828125 5.332031 -1.128906 4.894531 -0.628906 C 4.445312 -0.121094 3.835938 0.128906 3.054688 0.128906 C 2.265625 0.128906 1.648438 -0.121094 1.207031 -0.628906 C 0.769531 -1.128906 0.550781 -1.828125 0.550781 -2.726562 C 0.550781 -3.625 0.769531 -4.324219 1.207031 -4.835938 C 1.648438 -5.332031 2.265625 -5.59375 3.054688 -5.59375 Z M 3.054688 -5.59375 "
           id="path6" />
      </g>
      <g
         id="glyph-0-6">
        <path
           d="M 0.847656 -2.15625 L 0.847656 -5.464844 L 1.746094 -5.464844 L 1.746094 -2.1875 C 1.746094 -1.667969 1.847656 -1.289062 2.046875 -1.027344 C 2.246094 -0.769531 2.546875 -0.640625 2.957031 -0.640625 C 3.4375 -0.640625 3.824219 -0.789062 4.105469 -1.097656 C 4.386719 -1.410156 4.523438 -1.828125 4.523438 -2.367188 L 4.523438 -5.464844 L 5.421875 -5.464844 L 5.421875 0 L 4.523438 0 L 4.523438 -0.839844 C 4.304688 -0.5 4.046875 -0.257812 3.765625 -0.101562 C 3.476562 0.0507812 3.144531 0.128906 2.765625 0.128906 C 2.136719 0.128906 1.65625 -0.0585938 1.339844 -0.449219 C 1.007812 -0.828125 0.847656 -1.398438 0.847656 -2.15625 Z M 3.105469 -5.59375 Z M 3.105469 -5.59375 "
           id="path7" />
      </g>
      <g
         id="glyph-0-7">
        <path
           d="M 1.828125 -7.011719 L 1.828125 -5.464844 L 3.675781 -5.464844 L 3.675781 -4.765625 L 1.828125 -4.765625 L 1.828125 -1.796875 C 1.828125 -1.347656 1.886719 -1.058594 2.007812 -0.9375 C 2.128906 -0.808594 2.378906 -0.75 2.757812 -0.75 L 3.675781 -0.75 L 3.675781 0 L 2.757812 0 C 2.058594 0 1.578125 -0.128906 1.320312 -0.390625 C 1.058594 -0.648438 0.929688 -1.117188 0.929688 -1.796875 L 0.929688 -4.765625 L 0.269531 -4.765625 L 0.269531 -5.464844 L 0.929688 -5.464844 L 0.929688 -7.011719 Z M 1.828125 -7.011719 "
           id="path8" />
      </g>
      <g
         id="glyph-0-8">
        <path
           d="M 4.535156 -4.632812 L 4.535156 -7.589844 L 5.433594 -7.589844 L 5.433594 0 L 4.535156 0 L 4.535156 -0.820312 C 4.34375 -0.488281 4.105469 -0.25 3.816406 -0.101562 C 3.527344 0.0507812 3.1875 0.128906 2.785156 0.128906 C 2.128906 0.128906 1.589844 -0.128906 1.167969 -0.648438 C 0.75 -1.167969 0.550781 -1.867188 0.550781 -2.726562 C 0.550781 -3.585938 0.75 -4.273438 1.167969 -4.804688 C 1.589844 -5.324219 2.128906 -5.59375 2.785156 -5.59375 C 3.1875 -5.59375 3.527344 -5.511719 3.816406 -5.355469 C 4.105469 -5.195312 4.34375 -4.953125 4.535156 -4.632812 Z M 1.476562 -2.726562 C 1.476562 -2.066406 1.609375 -1.546875 1.878906 -1.167969 C 2.148438 -0.789062 2.515625 -0.609375 2.996094 -0.609375 C 3.476562 -0.609375 3.84375 -0.789062 4.125 -1.167969 C 4.394531 -1.546875 4.535156 -2.066406 4.535156 -2.726562 C 4.535156 -3.386719 4.394531 -3.894531 4.125 -4.273438 C 3.84375 -4.65625 3.476562 -4.84375 2.996094 -4.84375 C 2.515625 -4.84375 2.148438 -4.65625 1.878906 -4.273438 C 1.609375 -3.894531 1.476562 -3.386719 1.476562 -2.726562 Z M 1.476562 -2.726562 "
           id="path9" />
      </g>
      <g
         id="glyph-0-9">
        <path
           d="M 5.613281 -2.957031 L 5.613281 -2.515625 L 1.488281 -2.515625 C 1.527344 -1.898438 1.707031 -1.417969 2.046875 -1.097656 C 2.378906 -0.777344 2.835938 -0.621094 3.4375 -0.621094 C 3.777344 -0.621094 4.117188 -0.660156 4.433594 -0.738281 C 4.753906 -0.820312 5.085938 -0.949219 5.402344 -1.128906 L 5.402344 -0.28125 C 5.085938 -0.140625 4.753906 -0.03125 4.414062 0.03125 C 4.074219 0.0898438 3.726562 0.128906 3.386719 0.128906 C 2.507812 0.128906 1.816406 -0.121094 1.308594 -0.621094 C 0.800781 -1.117188 0.550781 -1.808594 0.550781 -2.675781 C 0.550781 -3.566406 0.789062 -4.273438 1.269531 -4.804688 C 1.746094 -5.324219 2.40625 -5.59375 3.226562 -5.59375 C 3.964844 -5.59375 4.542969 -5.355469 4.972656 -4.882812 C 5.394531 -4.40625 5.613281 -3.765625 5.613281 -2.957031 Z M 4.714844 -3.214844 C 4.703125 -3.707031 4.566406 -4.09375 4.304688 -4.394531 C 4.035156 -4.683594 3.675781 -4.835938 3.234375 -4.835938 C 2.738281 -4.835938 2.335938 -4.683594 2.039062 -4.40625 C 1.738281 -4.125 1.558594 -3.726562 1.519531 -3.214844 Z M 4.714844 -3.214844 "
           id="path10" />
      </g>
      <g
         id="glyph-0-10">
        <path
           d="M 4.535156 -2.796875 C 4.535156 -3.4375 4.394531 -3.945312 4.136719 -4.304688 C 3.867188 -4.664062 3.484375 -4.84375 3.007812 -4.84375 C 2.527344 -4.84375 2.148438 -4.664062 1.878906 -4.304688 C 1.609375 -3.945312 1.476562 -3.4375 1.476562 -2.796875 C 1.476562 -2.148438 1.609375 -1.648438 1.878906 -1.289062 C 2.148438 -0.929688 2.527344 -0.75 3.007812 -0.75 C 3.484375 -0.75 3.867188 -0.929688 4.136719 -1.289062 C 4.394531 -1.648438 4.535156 -2.148438 4.535156 -2.796875 Z M 5.433594 -0.679688 C 5.433594 0.238281 5.222656 0.929688 4.8125 1.386719 C 4.394531 1.835938 3.765625 2.066406 2.917969 2.066406 C 2.597656 2.066406 2.308594 2.039062 2.027344 1.996094 C 1.746094 1.949219 1.46875 1.878906 1.207031 1.777344 L 1.207031 0.910156 C 1.46875 1.046875 1.726562 1.148438 1.988281 1.21875 C 2.246094 1.289062 2.507812 1.328125 2.777344 1.328125 C 3.355469 1.328125 3.796875 1.167969 4.09375 0.867188 C 4.386719 0.558594 4.535156 0.101562 4.535156 -0.519531 L 4.535156 -0.957031 C 4.34375 -0.640625 4.105469 -0.398438 3.816406 -0.238281 C 3.527344 -0.078125 3.1875 0 2.785156 0 C 2.109375 0 1.566406 -0.25 1.160156 -0.757812 C 0.75 -1.269531 0.550781 -1.949219 0.550781 -2.796875 C 0.550781 -3.636719 0.75 -4.316406 1.160156 -4.824219 C 1.566406 -5.332031 2.109375 -5.59375 2.785156 -5.59375 C 3.1875 -5.59375 3.527344 -5.511719 3.816406 -5.355469 C 4.105469 -5.195312 4.34375 -4.953125 4.535156 -4.632812 L 4.535156 -5.464844 L 5.433594 -5.464844 Z M 5.433594 -0.679688 "
           id="path11" />
      </g>
      <g
         id="glyph-0-11">
        <path
           d="M 4.105469 -4.625 C 4.003906 -4.683594 3.894531 -4.722656 3.777344 -4.753906 C 3.65625 -4.773438 3.527344 -4.792969 3.386719 -4.792969 C 2.875 -4.792969 2.488281 -4.625 2.21875 -4.296875 C 1.9375 -3.964844 1.808594 -3.496094 1.808594 -2.875 L 1.808594 0 L 0.910156 0 L 0.910156 -5.464844 L 1.808594 -5.464844 L 1.808594 -4.613281 C 1.988281 -4.945312 2.238281 -5.195312 2.535156 -5.355469 C 2.835938 -5.511719 3.207031 -5.59375 3.644531 -5.59375 C 3.707031 -5.59375 3.777344 -5.582031 3.855469 -5.582031 C 3.925781 -5.574219 4.003906 -5.5625 4.105469 -5.542969 Z M 4.105469 -4.625 "
           id="path12" />
      </g>
      <g
         id="glyph-0-12">
        <path
           d="M 3.777344 -6.421875 L 1.289062 -2.535156 L 3.777344 -2.535156 Z M 3.515625 -7.28125 L 4.753906 -7.28125 L 4.753906 -2.535156 L 5.792969 -2.535156 L 5.792969 -1.71875 L 4.753906 -1.71875 L 4.753906 0 L 3.777344 0 L 3.777344 -1.71875 L 0.488281 -1.71875 L 0.488281 -2.667969 Z M 3.515625 -7.28125 "
           id="path13" />
      </g>
      <g
         id="glyph-0-13">
        <path
           d="M 3.296875 -4.035156 C 2.855469 -4.035156 2.507812 -3.875 2.246094 -3.574219 C 1.988281 -3.277344 1.859375 -2.855469 1.859375 -2.335938 C 1.859375 -1.808594 1.988281 -1.386719 2.246094 -1.089844 C 2.507812 -0.789062 2.855469 -0.640625 3.296875 -0.640625 C 3.734375 -0.640625 4.085938 -0.789062 4.34375 -1.089844 C 4.605469 -1.386719 4.734375 -1.808594 4.734375 -2.335938 C 4.734375 -2.855469 4.605469 -3.277344 4.34375 -3.574219 C 4.085938 -3.875 3.734375 -4.035156 3.296875 -4.035156 Z M 5.253906 -7.121094 L 5.253906 -6.222656 C 5.003906 -6.34375 4.753906 -6.433594 4.503906 -6.492188 C 4.246094 -6.550781 3.996094 -6.582031 3.753906 -6.582031 C 3.097656 -6.582031 2.597656 -6.363281 2.257812 -5.921875 C 1.917969 -5.484375 1.71875 -4.8125 1.679688 -3.933594 C 1.867188 -4.214844 2.109375 -4.433594 2.398438 -4.585938 C 2.6875 -4.734375 3.007812 -4.8125 3.355469 -4.8125 C 4.085938 -4.8125 4.664062 -4.585938 5.085938 -4.144531 C 5.503906 -3.707031 5.722656 -3.097656 5.722656 -2.335938 C 5.722656 -1.589844 5.492188 -0.988281 5.054688 -0.539062 C 4.613281 -0.0898438 4.023438 0.128906 3.296875 0.128906 C 2.457031 0.128906 1.808594 -0.191406 1.367188 -0.828125 C 0.917969 -1.46875 0.699219 -2.40625 0.699219 -3.636719 C 0.699219 -4.785156 0.96875 -5.703125 1.519531 -6.382812 C 2.058594 -7.0625 2.796875 -7.410156 3.714844 -7.410156 C 3.957031 -7.410156 4.207031 -7.382812 4.464844 -7.339844 C 4.714844 -7.292969 4.972656 -7.222656 5.253906 -7.121094 Z M 5.253906 -7.121094 "
           id="path14" />
      </g>
      <g
         id="glyph-0-14">
        <path
           d="M 3.175781 -3.457031 C 2.707031 -3.457031 2.335938 -3.324219 2.066406 -3.078125 C 1.796875 -2.828125 1.667969 -2.488281 1.667969 -2.046875 C 1.667969 -1.609375 1.796875 -1.257812 2.066406 -1.007812 C 2.335938 -0.757812 2.707031 -0.640625 3.175781 -0.640625 C 3.636719 -0.640625 4.003906 -0.757812 4.273438 -1.019531 C 4.542969 -1.269531 4.683594 -1.609375 4.683594 -2.046875 C 4.683594 -2.488281 4.542969 -2.828125 4.285156 -3.078125 C 4.015625 -3.324219 3.644531 -3.457031 3.175781 -3.457031 Z M 2.1875 -3.875 C 1.769531 -3.976562 1.4375 -4.175781 1.199219 -4.464844 C 0.957031 -4.753906 0.847656 -5.105469 0.847656 -5.523438 C 0.847656 -6.101562 1.046875 -6.5625 1.46875 -6.902344 C 1.878906 -7.242188 2.445312 -7.410156 3.175781 -7.410156 C 3.894531 -7.410156 4.464844 -7.242188 4.882812 -6.902344 C 5.292969 -6.5625 5.503906 -6.101562 5.503906 -5.523438 C 5.503906 -5.105469 5.382812 -4.753906 5.144531 -4.464844 C 4.90625 -4.175781 4.585938 -3.976562 4.164062 -3.875 C 4.632812 -3.765625 5.003906 -3.546875 5.273438 -3.226562 C 5.535156 -2.90625 5.671875 -2.507812 5.671875 -2.046875 C 5.671875 -1.339844 5.453125 -0.800781 5.023438 -0.429688 C 4.585938 -0.0507812 3.964844 0.128906 3.167969 0.128906 C 2.367188 0.128906 1.746094 -0.0507812 1.320312 -0.429688 C 0.890625 -0.800781 0.679688 -1.339844 0.679688 -2.046875 C 0.679688 -2.507812 0.808594 -2.90625 1.078125 -3.226562 C 1.339844 -3.546875 1.707031 -3.765625 2.1875 -3.875 Z M 1.828125 -5.433594 C 1.828125 -5.054688 1.9375 -4.753906 2.175781 -4.542969 C 2.417969 -4.335938 2.746094 -4.234375 3.175781 -4.234375 C 3.597656 -4.234375 3.925781 -4.335938 4.164062 -4.542969 C 4.40625 -4.753906 4.523438 -5.054688 4.523438 -5.433594 C 4.523438 -5.8125 4.40625 -6.101562 4.164062 -6.3125 C 3.925781 -6.523438 3.597656 -6.632812 3.175781 -6.632812 C 2.746094 -6.632812 2.417969 -6.523438 2.175781 -6.3125 C 1.9375 -6.101562 1.828125 -5.8125 1.828125 -5.433594 Z M 1.828125 -5.433594 "
           id="path15" />
      </g>
      <g
         id="glyph-1-0">
        <path
           d="M -4.394531 -5.105469 L -4.394531 -3.6875 L -2.765625 -3.277344 L -2.765625 -4.703125 Z M -7.171875 -4.375 L -5.144531 -3.867188 L -5.144531 -5.292969 L -7.171875 -5.804688 L -7.171875 -6.582031 L -5.144531 -6.082031 L -5.144531 -7.601562 L -4.394531 -7.601562 L -4.394531 -5.894531 L -2.765625 -5.492188 L -2.765625 -7.042969 L -2.019531 -7.042969 L -2.019531 -5.304688 L 0 -4.792969 L 0 -4.015625 L -2.019531 -4.515625 L -2.019531 -3.085938 L 0 -2.585938 L 0 -1.796875 L -2.019531 -2.308594 L -2.019531 -0.769531 L -2.765625 -0.769531 L -2.765625 -2.488281 L -4.394531 -2.898438 L -4.394531 -1.328125 L -5.144531 -1.328125 L -5.144531 -3.085938 L -7.171875 -3.585938 Z M -7.171875 -4.375 "
           id="path16" />
      </g>
      <g
         id="glyph-1-1" />
      <g
         id="glyph-1-2">
        <path
           d="M -7.28125 -0.980469 L -7.28125 -2.308594 L -1.1875 -5.535156 L -7.28125 -5.535156 L -7.28125 -6.492188 L 0 -6.492188 L 0 -5.164062 L -6.09375 -1.9375 L 0 -1.9375 L 0 -0.980469 Z M -7.28125 -0.980469 "
           id="path17" />
      </g>
      <g
         id="glyph-1-3">
        <path
           d="M -4.835938 -3.054688 C -4.835938 -2.578125 -4.644531 -2.199219 -4.265625 -1.917969 C -3.886719 -1.636719 -3.375 -1.5 -2.726562 -1.5 C -2.066406 -1.5 -1.558594 -1.628906 -1.179688 -1.90625 C -0.800781 -2.1875 -0.621094 -2.566406 -0.621094 -3.054688 C -0.621094 -3.535156 -0.800781 -3.914062 -1.179688 -4.195312 C -1.558594 -4.476562 -2.066406 -4.613281 -2.726562 -4.613281 C -3.367188 -4.613281 -3.886719 -4.476562 -4.265625 -4.195312 C -4.644531 -3.914062 -4.835938 -3.535156 -4.835938 -3.054688 Z M -5.59375 -3.054688 C -5.59375 -3.835938 -5.332031 -4.445312 -4.835938 -4.894531 C -4.324219 -5.332031 -3.625 -5.5625 -2.726562 -5.5625 C -1.828125 -5.5625 -1.128906 -5.332031 -0.628906 -4.894531 C -0.121094 -4.445312 0.128906 -3.835938 0.128906 -3.054688 C 0.128906 -2.265625 -0.121094 -1.648438 -0.628906 -1.207031 C -1.128906 -0.769531 -1.828125 -0.550781 -2.726562 -0.550781 C -3.625 -0.550781 -4.324219 -0.769531 -4.835938 -1.207031 C -5.332031 -1.648438 -5.59375 -2.265625 -5.59375 -3.054688 Z M -5.59375 -3.054688 "
           id="path18" />
      </g>
      <g
         id="glyph-1-4">
        <path
           d="M -4.632812 -4.535156 L -7.589844 -4.535156 L -7.589844 -5.433594 L 0 -5.433594 L 0 -4.535156 L -0.820312 -4.535156 C -0.488281 -4.34375 -0.25 -4.105469 -0.101562 -3.816406 C 0.0507812 -3.527344 0.128906 -3.1875 0.128906 -2.785156 C 0.128906 -2.128906 -0.128906 -1.589844 -0.648438 -1.167969 C -1.167969 -0.75 -1.867188 -0.550781 -2.726562 -0.550781 C -3.585938 -0.550781 -4.273438 -0.75 -4.804688 -1.167969 C -5.324219 -1.589844 -5.59375 -2.128906 -5.59375 -2.785156 C -5.59375 -3.1875 -5.511719 -3.527344 -5.355469 -3.816406 C -5.195312 -4.105469 -4.953125 -4.34375 -4.632812 -4.535156 Z M -2.726562 -1.476562 C -2.066406 -1.476562 -1.546875 -1.609375 -1.167969 -1.878906 C -0.789062 -2.148438 -0.609375 -2.515625 -0.609375 -2.996094 C -0.609375 -3.476562 -0.789062 -3.84375 -1.167969 -4.125 C -1.546875 -4.394531 -2.066406 -4.535156 -2.726562 -4.535156 C -3.386719 -4.535156 -3.894531 -4.394531 -4.273438 -4.125 C -4.65625 -3.84375 -4.84375 -3.476562 -4.84375 -2.996094 C -4.84375 -2.515625 -4.65625 -2.148438 -4.273438 -1.878906 C -3.894531 -1.609375 -3.386719 -1.476562 -2.726562 -1.476562 Z M -2.726562 -1.476562 "
           id="path19" />
      </g>
      <g
         id="glyph-1-5">
        <path
           d="M -2.957031 -5.613281 L -2.515625 -5.613281 L -2.515625 -1.488281 C -1.898438 -1.527344 -1.417969 -1.707031 -1.097656 -2.046875 C -0.777344 -2.378906 -0.621094 -2.835938 -0.621094 -3.4375 C -0.621094 -3.777344 -0.660156 -4.117188 -0.738281 -4.433594 C -0.820312 -4.753906 -0.949219 -5.085938 -1.128906 -5.402344 L -0.28125 -5.402344 C -0.140625 -5.085938 -0.03125 -4.753906 0.03125 -4.414062 C 0.0898438 -4.074219 0.128906 -3.726562 0.128906 -3.386719 C 0.128906 -2.507812 -0.121094 -1.816406 -0.621094 -1.308594 C -1.117188 -0.800781 -1.808594 -0.550781 -2.675781 -0.550781 C -3.566406 -0.550781 -4.273438 -0.789062 -4.804688 -1.269531 C -5.324219 -1.746094 -5.59375 -2.40625 -5.59375 -3.226562 C -5.59375 -3.964844 -5.355469 -4.542969 -4.882812 -4.972656 C -4.40625 -5.394531 -3.765625 -5.613281 -2.957031 -5.613281 Z M -3.214844 -4.714844 C -3.707031 -4.703125 -4.09375 -4.566406 -4.394531 -4.304688 C -4.683594 -4.035156 -4.835938 -3.675781 -4.835938 -3.234375 C -4.835938 -2.738281 -4.683594 -2.335938 -4.40625 -2.039062 C -4.125 -1.738281 -3.726562 -1.558594 -3.214844 -1.519531 Z M -3.214844 -4.714844 "
           id="path20" />
      </g>
      <g
         id="glyph-1-6">
        <path
           d="M -5.304688 -4.425781 L -4.453125 -4.425781 C -4.574219 -4.164062 -4.675781 -3.90625 -4.746094 -3.636719 C -4.804688 -3.355469 -4.84375 -3.078125 -4.84375 -2.785156 C -4.84375 -2.335938 -4.773438 -1.996094 -4.632812 -1.777344 C -4.496094 -1.558594 -4.296875 -1.449219 -4.023438 -1.449219 C -3.816406 -1.449219 -3.65625 -1.527344 -3.535156 -1.6875 C -3.417969 -1.847656 -3.296875 -2.167969 -3.195312 -2.648438 L -3.125 -2.957031 C -2.988281 -3.597656 -2.785156 -4.046875 -2.546875 -4.316406 C -2.296875 -4.574219 -1.949219 -4.714844 -1.507812 -4.714844 C -1 -4.714844 -0.597656 -4.515625 -0.308594 -4.117188 C -0.0117188 -3.714844 0.128906 -3.15625 0.128906 -2.457031 C 0.128906 -2.15625 0.101562 -1.859375 0.0507812 -1.539062 C 0 -1.21875 -0.078125 -0.890625 -0.199219 -0.539062 L -1.128906 -0.539062 C -0.949219 -0.867188 -0.820312 -1.199219 -0.738281 -1.519531 C -0.648438 -1.835938 -0.609375 -2.15625 -0.609375 -2.476562 C -0.609375 -2.898438 -0.679688 -3.226562 -0.820312 -3.457031 C -0.957031 -3.675781 -1.167969 -3.796875 -1.4375 -3.796875 C -1.679688 -3.796875 -1.867188 -3.707031 -1.996094 -3.546875 C -2.128906 -3.386719 -2.257812 -3.027344 -2.378906 -2.46875 L -2.445312 -2.15625 C -2.566406 -1.597656 -2.746094 -1.1875 -2.988281 -0.949219 C -3.226562 -0.699219 -3.554688 -0.578125 -3.984375 -0.578125 C -4.496094 -0.578125 -4.894531 -0.757812 -5.175781 -1.117188 C -5.453125 -1.476562 -5.59375 -1.996094 -5.59375 -2.675781 C -5.59375 -3.007812 -5.5625 -3.316406 -5.511719 -3.617188 C -5.464844 -3.90625 -5.394531 -4.175781 -5.304688 -4.425781 Z M -5.304688 -4.425781 "
           id="path21" />
      </g>
    </g>
    <clipPath
       id="clip-0">
      <path
         clip-rule="nonzero"
         d="M 0.167969 0 L 460.433594 0 L 460.433594 345.199219 L 0.167969 345.199219 Z M 0.167969 0 "
         id="path22" />
    </clipPath>
    <clipPath
       id="clip-1">
      <path
         clip-rule="nonzero"
         d="M 352 303 L 356 303 L 356 307.226562 L 352 307.226562 Z M 352 303 "
         id="path23" />
    </clipPath>
    <clipPath
       id="clip-2">
      <path
         clip-rule="nonzero"
         d="M 161 305 L 165 305 L 165 307.226562 L 161 307.226562 Z M 161 305 "
         id="path24" />
    </clipPath>
    <clipPath
       id="clip-3">
      <path
         clip-rule="nonzero"
         d="M 161 304 L 165 304 L 165 307.226562 L 161 307.226562 Z M 161 304 "
         id="path25" />
    </clipPath>
    <clipPath
       id="clip-4">
      <path
         clip-rule="nonzero"
         d="M 362 305 L 365 305 L 365 307.226562 L 362 307.226562 Z M 362 305 "
         id="path26" />
    </clipPath>
    <clipPath
       id="clip-5">
      <path
         clip-rule="nonzero"
         d="M 362 305 L 366 305 L 366 307.226562 L 362 307.226562 Z M 362 305 "
         id="path27" />
    </clipPath>
    <clipPath
       id="clip-6">
      <path
         clip-rule="nonzero"
         d="M 372 305 L 375 305 L 375 307.226562 L 372 307.226562 Z M 372 305 "
         id="path28" />
    </clipPath>
    <clipPath
       id="clip-7">
      <path
         clip-rule="nonzero"
         d="M 371 305 L 375 305 L 375 307.226562 L 371 307.226562 Z M 371 305 "
         id="path29" />
    </clipPath>
    <clipPath
       id="clip-8">
      <path
         clip-rule="nonzero"
         d="M 381 305 L 384 305 L 384 307.226562 L 381 307.226562 Z M 381 305 "
         id="path30" />
    </clipPath>
    <clipPath
       id="clip-9">
      <path
         clip-rule="nonzero"
         d="M 381 305 L 385 305 L 385 307.226562 L 381 307.226562 Z M 381 305 "
         id="path31" />
    </clipPath>
    <clipPath
       id="clip-10">
      <path
         clip-rule="nonzero"
         d="M 152 305 L 155 305 L 155 307.226562 L 152 307.226562 Z M 152 305 "
         id="path32" />
    </clipPath>
    <clipPath
       id="clip-11">
      <path
         clip-rule="nonzero"
         d="M 151 305 L 155 305 L 155 307.226562 L 151 307.226562 Z M 151 305 "
         id="path33" />
    </clipPath>
    <clipPath
       id="clip-12">
      <path
         clip-rule="nonzero"
         d="M 391 306 L 394 306 L 394 307.226562 L 391 307.226562 Z M 391 306 "
         id="path34" />
    </clipPath>
    <clipPath
       id="clip-13">
      <path
         clip-rule="nonzero"
         d="M 390 305 L 395 305 L 395 307.226562 L 390 307.226562 Z M 390 305 "
         id="path35" />
    </clipPath>
    <clipPath
       id="clip-14">
      <path
         clip-rule="nonzero"
         d="M 400 306 L 404 306 L 404 307.226562 L 400 307.226562 Z M 400 306 "
         id="path36" />
    </clipPath>
    <clipPath
       id="clip-15">
      <path
         clip-rule="nonzero"
         d="M 400 305 L 404 305 L 404 307.226562 L 400 307.226562 Z M 400 305 "
         id="path37" />
    </clipPath>
  </defs>
  <g
     clip-path="url(#clip-0)"
     id="g38">
    <path
       fill-rule="nonzero"
       fill="rgb(100%, 100%, 100%)"
       fill-opacity="1"
       d="M 0.167969 345.199219 L 460.433594 345.199219 L 460.433594 0 L 0.167969 0 Z M 0.167969 345.199219 "
       id="path38" />
  </g>
  <path
     fill-rule="nonzero"
     fill="rgb(100%, 100%, 100%)"
     fill-opacity="1"
     d="M 57.699219 307.226562 L 414.40625 307.226562 L 414.40625 41.425781 L 57.699219 41.425781 Z M 57.699219 307.226562 "
     id="path39" />
  <path
     fill-rule="nonzero"
     fill="rgb(0%, 0%, 0%)"
     fill-opacity="1"
     stroke-width="1"
     stroke-linecap="butt"
     stroke-linejoin="round"
     stroke="rgb(0%, 0%, 0%)"
     stroke-opacity="1"
     stroke-miterlimit="10"
     d="M -0.00100893 -1.116302 C 0.29621 -1.116302 0.581696 -0.998978 0.788967 -0.791708 C 1.000148 -0.580526 1.117472 -0.29504 1.117472 -0.00173184 C 1.117472 0.295487 1.000148 0.580973 0.788967 0.792155 C 0.581696 0.999426 0.29621 1.116749 -0.00100893 1.116749 C -0.298228 1.116749 -0.579803 0.999426 -0.790985 0.792155 C -1.002166 0.580973 -1.119489 0.295487 -1.119489 -0.00173184 C -1.119489 -0.29504 -1.002166 -0.580526 -0.790985 -0.791708 C -0.579803 -0.998978 -0.298228 -1.116302 -0.00100893 -1.116302 Z M -0.00100893 -1.116302 "
     transform="matrix(0.998844, 0, 0, -0.998844, 277.653352, 169.361551)"
     id="path40" />
  <path
     fill-rule="nonzero"
     fill="rgb(0%, 0%, 0%)"
     fill-opacity="1"
     stroke-width="1"
     stroke-linecap="butt"
     stroke-linejoin="round"
     stroke="rgb(0%, 0%, 0%)"
     stroke-opacity="1"
     stroke-miterlimit="10"
     d="M -0.000749546 -1.116714 C 0.296469 -1.116714 0.581955 -0.999391 0.789226 -0.79212 C 1.000408 -0.580939 1.117731 -0.295453 1.117731 0.00176609 C 1.117731 0.295074 1.000408 0.58056 0.789226 0.791742 C 0.581955 0.999013 0.296469 1.116336 -0.000749546 1.116336 C -0.297968 1.116336 -0.579544 0.999013 -0.790725 0.791742 C -1.001907 0.58056 -1.11923 0.295074 -1.11923 0.00176609 C -1.11923 -0.295453 -1.001907 -0.580939 -0.790725 -0.79212 C -0.579544 -0.999391 -0.297968 -1.116714 -0.000749546 -1.116714 Z M -0.000749546 -1.116714 "
     transform="matrix(0.998844, 0, 0, -0.998844, 220.274186, 119.904108)"
     id="path41" />
  <path
     fill-rule="nonzero"
     fill="rgb(0%, 0%, 0%)"
     fill-opacity="1"
     stroke-width="1"
     stroke-linecap="butt"
     stroke-linejoin="round"
     stroke="rgb(0%, 0%, 0%)"
     stroke-opacity="1"
     stroke-miterlimit="10"
     d="M 0.00177117 -1.119577 C 0.295079 -1.119577 0.580565 -0.998344 0.791747 -0.791073 C 0.999018 -0.579891 1.116341 -0.298316 1.116341 -0.00109691 C 1.116341 0.296122 0.999018 0.581608 0.791747 0.788879 C 0.580565 1.00006 0.295079 1.117384 0.00177117 1.117384 C -0.295447 1.117384 -0.580934 1.00006 -0.792115 0.788879 C -0.999386 0.581608 -1.116709 0.296122 -1.116709 -0.00109691 C -1.116709 -0.298316 -0.999386 -0.579891 -0.792115 -0.791073 C -0.580934 -0.998344 -0.295447 -1.119577 0.00177117 -1.119577 Z M 0.00177117 -1.119577 "
     transform="matrix(0.998844, 0, 0, -0.998844, 239.400575, 55.455936)"
     id="path42" />
  <path
     fill-rule="nonzero"
     fill="rgb(0%, 0%, 0%)"
     fill-opacity="1"
     stroke-width="1"
     stroke-linecap="butt"
     stroke-linejoin="round"
     stroke="rgb(0%, 0%, 0%)"
     stroke-opacity="1"
     stroke-miterlimit="10"
     d="M 0.000640506 -1.117098 C 0.297859 -1.117098 0.579435 -0.999775 0.790616 -0.792504 C 1.001798 -0.581323 1.119121 -0.295836 1.119121 0.0013824 C 1.119121 0.29469 1.001798 0.580177 0.790616 0.791358 C 0.579435 0.998629 0.297859 1.119863 0.000640506 1.119863 C -0.296578 1.119863 -0.582064 0.998629 -0.789335 0.791358 C -1.000517 0.580177 -1.11784 0.29469 -1.11784 0.0013824 C -1.11784 -0.295836 -1.000517 -0.581323 -0.789335 -0.792504 C -0.582064 -0.999775 -0.296578 -1.117098 0.000640506 -1.117098 Z M 0.000640506 -1.117098 "
     transform="matrix(0.998844, 0, 0, -0.998844, 201.147798, 228.028725)"
     id="path43" />
  <path
     fill-rule="nonzero"
     fill="rgb(0%, 0%, 0%)"
     fill-opacity="1"
     stroke-width="1"
     stroke-linecap="butt"
     stroke-linejoin="round"
     stroke="rgb(0%, 0%, 0%)"
     stroke-opacity="1"
     stroke-miterlimit="10"
     d="M -0.0000545202 -1.119126 C 0.297164 -1.119126 0.58265 -1.001803 0.789921 -0.790622 C 1.001103 -0.57944 1.118426 -0.297864 1.118426 -0.000645802 C 1.118426 0.296573 1.001103 0.582059 0.789921 0.78933 C 0.58265 1.000512 0.297164 1.117835 -0.0000545202 1.117835 C -0.297273 1.117835 -0.582759 1.000512 -0.79003 0.78933 C -1.001212 0.582059 -1.118535 0.296573 -1.118535 -0.000645802 C -1.118535 -0.297864 -1.001212 -0.57944 -0.79003 -0.790622 C -0.582759 -1.001803 -0.297273 -1.119126 -0.0000545202 -1.119126 Z M -0.0000545202 -1.119126 "
     transform="matrix(0.998844, 0, 0, -0.998844, 210.710992, 175.401699)"
     id="path44" />
  <path
     fill-rule="nonzero"
     fill="rgb(0%, 0%, 0%)"
     fill-opacity="1"
     stroke-width="1"
     stroke-linecap="butt"
     stroke-linejoin="round"
     stroke="rgb(0%, 0%, 0%)"
     stroke-opacity="1"
     stroke-miterlimit="10"
     d="M 0.00107615 -1.116146 C 0.298295 -1.116146 0.57987 -0.998823 0.791052 -0.791552 C 0.998323 -0.580371 1.119557 -0.294884 1.119557 -0.00157655 C 1.119557 0.295642 0.998323 0.581128 0.791052 0.79231 C 0.57987 0.999581 0.298295 1.116904 0.00107615 1.116904 C -0.296142 1.116904 -0.581629 0.999581 -0.7889 0.79231 C -1.000081 0.581128 -1.117404 0.295642 -1.117404 -0.00157655 C -1.117404 -0.294884 -1.000081 -0.580371 -0.7889 -0.791552 C -0.581629 -0.998823 -0.296142 -1.116146 0.00107615 -1.116146 Z M 0.00107615 -1.116146 "
     transform="matrix(0.998844, 0, 0, -0.998844, 248.963769, 54.080457)"
     id="path45" />
  <path
     fill-rule="nonzero"
     fill="rgb(0%, 0%, 0%)"
     fill-opacity="1"
     stroke-width="1"
     stroke-linecap="butt"
     stroke-linejoin="round"
     stroke="rgb(0%, 0%, 0%)"
     stroke-opacity="1"
     stroke-miterlimit="10"
     d="M 0.00038112 -1.118109 C 0.2976 -1.118109 0.579175 -1.000786 0.790357 -0.789604 C 1.001539 -0.582333 1.118862 -0.296847 1.118862 0.0003717 C 1.118862 0.29759 1.001539 0.579166 0.790357 0.790347 C 0.579175 1.001529 0.2976 1.118852 0.00038112 1.118852 C -0.296837 1.118852 -0.582324 1.001529 -0.789595 0.790347 C -1.000776 0.579166 -1.118099 0.29759 -1.118099 0.0003717 C -1.118099 -0.296847 -1.000776 -0.582333 -0.789595 -0.789604 C -0.582324 -1.000786 -0.296837 -1.118109 0.00038112 -1.118109 Z M 0.00038112 -1.118109 "
     transform="matrix(0.998844, 0, 0, -0.998844, 258.526963, 83.723028)"
     id="path46" />
  <path
     fill-rule="nonzero"
     fill="rgb(0%, 0%, 0%)"
     fill-opacity="1"
     stroke-width="1"
     stroke-linecap="butt"
     stroke-linejoin="round"
     stroke="rgb(0%, 0%, 0%)"
     stroke-opacity="1"
     stroke-miterlimit="10"
     d="M 0.00151179 -1.119315 C 0.29482 -1.119315 0.580306 -1.001992 0.791488 -0.790811 C 0.998758 -0.579629 1.116082 -0.298053 1.116082 -0.00083479 C 1.116082 0.296384 0.998758 0.58187 0.791488 0.789141 C 0.580306 1.000323 0.29482 1.117646 0.00151179 1.117646 C -0.295707 1.117646 -0.581193 1.000323 -0.792375 0.789141 C -0.999646 0.58187 -1.116969 0.296384 -1.116969 -0.00083479 C -1.116969 -0.298053 -0.999646 -0.579629 -0.792375 -0.790811 C -0.581193 -1.001992 -0.295707 -1.119315 0.00151179 -1.119315 Z M 0.00151179 -1.119315 "
     transform="matrix(0.998844, 0, 0, -0.998844, 296.77974, 244.913229)"
     id="path47" />
  <path
     fill-rule="nonzero"
     fill="rgb(0%, 0%, 0%)"
     fill-opacity="1"
     stroke-width="1"
     stroke-linecap="butt"
     stroke-linejoin="round"
     stroke="rgb(0%, 0%, 0%)"
     stroke-opacity="1"
     stroke-miterlimit="10"
     d="M -0.00144457 -1.117051 C 0.295774 -1.117051 0.58126 -0.999728 0.792442 -0.792457 C 0.999713 -0.581275 1.117036 -0.295789 1.117036 0.00142976 C 1.117036 0.294738 0.999713 0.580224 0.792442 0.791406 C 0.58126 0.998676 0.295774 1.11991 -0.00144457 1.11991 C -0.294752 1.11991 -0.580239 0.998676 -0.79142 0.791406 C -0.998691 0.580224 -1.119925 0.294738 -1.119925 0.00142976 C -1.119925 -0.295789 -0.998691 -0.581275 -0.79142 -0.792457 C -0.580239 -0.999728 -0.294752 -1.117051 -0.00144457 -1.117051 Z M -0.00144457 -1.117051 "
     transform="matrix(0.998844, 0, 0, -0.998844, 229.83738, 74.892053)"
     id="path48" />
  <path
     fill-rule="nonzero"
     fill="rgb(0%, 0%, 0%)"
     fill-opacity="1"
     stroke-width="1"
     stroke-linecap="butt"
     stroke-linejoin="round"
     stroke="rgb(0%, 0%, 0%)"
     stroke-opacity="1"
     stroke-miterlimit="10"
     d="M -0.000313906 -1.119969 C 0.296905 -1.119969 0.582391 -0.998735 0.789662 -0.791464 C 1.000844 -0.580283 1.118167 -0.294796 1.118167 -0.00148861 C 1.118167 0.29573 1.000844 0.581216 0.789662 0.792398 C 0.582391 0.999669 0.296905 1.116992 -0.000313906 1.116992 C -0.297533 1.116992 -0.579108 0.999669 -0.79029 0.792398 C -1.001471 0.581216 -1.118794 0.29573 -1.118794 -0.00148861 C -1.118794 -0.294796 -1.001471 -0.580283 -0.79029 -0.791464 C -0.579108 -0.998735 -0.297533 -1.119969 -0.000313906 -1.119969 Z M -0.000313906 -1.119969 "
     transform="matrix(0.998844, 0, 0, -0.998844, 268.090157, 120.322732)"
     id="path49" />
  <path
     fill-rule="nonzero"
     fill="rgb(0%, 0%, 0%)"
     fill-opacity="1"
     stroke-width="1"
     stroke-linecap="butt"
     stroke-linejoin="round"
     stroke="rgb(0%, 0%, 0%)"
     stroke-opacity="1"
     stroke-miterlimit="10"
     d="M 0.00081676 -1.117494 C 0.298035 -1.117494 0.579611 -1.000171 0.790793 -0.78899 C 1.001974 -0.581719 1.119297 -0.296232 1.119297 0.00098613 C 1.119297 0.298205 1.001974 0.57978 0.790793 0.790962 C 0.579611 1.002144 0.298035 1.119467 0.00081676 1.119467 C -0.296402 1.119467 -0.581888 1.002144 -0.789159 0.790962 C -1.000341 0.57978 -1.117664 0.298205 -1.117664 0.00098613 C -1.117664 -0.296232 -1.000341 -0.581719 -0.789159 -0.78899 C -0.581888 -1.000171 -0.296402 -1.117494 0.00081676 -1.117494 Z M 0.00081676 -1.117494 "
     transform="matrix(0.998844, 0, 0, -0.998844, 306.342934, 268.176766)"
     id="path50" />
  <path
     fill-rule="nonzero"
     fill="rgb(0%, 0%, 0%)"
     fill-opacity="1"
     stroke-width="1"
     stroke-linecap="butt"
     stroke-linejoin="round"
     stroke="rgb(0%, 0%, 0%)"
     stroke-opacity="1"
     stroke-miterlimit="10"
     d="M -0.00188021 -1.117793 C 0.295338 -1.117793 0.580825 -1.00047 0.792006 -0.789288 C 0.999277 -0.582017 1.1166 -0.296531 1.1166 0.000687502 C 1.1166 0.297906 0.999277 0.579482 0.792006 0.790663 C 0.580825 1.001845 0.295338 1.119168 -0.00188021 1.119168 C -0.295188 1.119168 -0.580674 1.001845 -0.791856 0.790663 C -0.999127 0.579482 -1.11645 0.297906 -1.11645 0.000687502 C -1.11645 -0.296531 -0.999127 -0.582017 -0.791856 -0.789288 C -0.580674 -1.00047 -0.295188 -1.117793 -0.00188021 -1.117793 Z M -0.00188021 -1.117793 "
     transform="matrix(0.998844, 0, 0, -0.998844, 182.021409, 290.563187)"
     id="path51" />
  <path
     fill-rule="nonzero"
     fill="rgb(0%, 0%, 0%)"
     fill-opacity="1"
     stroke-width="1"
     stroke-linecap="butt"
     stroke-linejoin="round"
     stroke="rgb(0%, 0%, 0%)"
     stroke-opacity="1"
     stroke-miterlimit="10"
     d="M -0.00170396 -1.117733 C 0.295515 -1.117733 0.581001 -1.000409 0.792183 -0.789228 C 0.999453 -0.581957 1.116777 -0.296471 1.116777 0.000748012 C 1.116777 0.297967 0.999453 0.579542 0.792183 0.790724 C 0.581001 1.001905 0.295515 1.119229 -0.00170396 1.119229 C -0.295012 1.119229 -0.580498 1.001905 -0.79168 0.790724 C -0.998951 0.579542 -1.116274 0.297967 -1.116274 0.000748012 C -1.116274 -0.296471 -0.998951 -0.581957 -0.79168 -0.789228 C -0.580498 -1.000409 -0.295012 -1.117733 -0.00170396 -1.117733 Z M -0.00170396 -1.117733 "
     transform="matrix(0.998844, 0, 0, -0.998844, 287.216546, 208.492935)"
     id="path52" />
  <path
     fill-rule="nonzero"
     fill="rgb(0%, 0%, 0%)"
     fill-opacity="1"
     stroke-width="1"
     stroke-linecap="butt"
     stroke-linejoin="round"
     stroke="rgb(0%, 0%, 0%)"
     stroke-opacity="1"
     stroke-miterlimit="10"
     d="M -0.00118519 -1.118321 C 0.296033 -1.118321 0.58152 -1.000998 0.788791 -0.789816 C 0.999972 -0.582545 1.117295 -0.297059 1.117295 0.000159901 C 1.117295 0.297379 0.999972 0.578954 0.788791 0.790136 C 0.58152 1.001317 0.296033 1.11864 -0.00118519 1.11864 C -0.298404 1.11864 -0.579979 1.001317 -0.791161 0.790136 C -0.998432 0.578954 -1.119666 0.297379 -1.119666 0.000159901 C -1.119666 -0.297059 -0.998432 -0.582545 -0.791161 -0.789816 C -0.579979 -1.000998 -0.298404 -1.118321 -0.00118519 -1.118321 Z M -0.00118519 -1.118321 "
     transform="matrix(0.998844, 0, 0, -0.998844, 172.458215, 302.703285)"
     id="path53" />
  <path
     fill-rule="nonzero"
     fill="rgb(0%, 0%, 0%)"
     fill-opacity="1"
     stroke-width="1"
     stroke-linecap="butt"
     stroke-linejoin="round"
     stroke="rgb(0%, 0%, 0%)"
     stroke-opacity="1"
     stroke-miterlimit="10"
     d="M 0.000121733 -1.117769 C 0.29734 -1.117769 0.582827 -1.000446 0.790098 -0.789264 C 1.001279 -0.581993 1.118602 -0.296507 1.118602 0.000711483 C 1.118602 0.29793 1.001279 0.579506 0.790098 0.790687 C 0.582827 1.001869 0.29734 1.119192 0.000121733 1.119192 C -0.297097 1.119192 -0.582583 1.001869 -0.789854 0.790687 C -1.001036 0.579506 -1.118359 0.29793 -1.118359 0.000711483 C -1.118359 -0.296507 -1.001036 -0.581993 -0.789854 -0.789264 C -0.582583 -1.000446 -0.297097 -1.117769 0.000121733 -1.117769 Z M 0.000121733 -1.117769 "
     transform="matrix(0.998844, 0, 0, -0.998844, 315.906128, 283.805398)"
     id="path54" />
  <path
     fill-rule="nonzero"
     fill="rgb(0%, 0%, 0%)"
     fill-opacity="1"
     stroke-width="1"
     stroke-linecap="butt"
     stroke-linejoin="round"
     stroke="rgb(0%, 0%, 0%)"
     stroke-opacity="1"
     stroke-miterlimit="10"
     d="M 0.00133553 -1.117923 C 0.294643 -1.117923 0.58013 -1.0006 0.791311 -0.789418 C 0.998582 -0.582148 1.119816 -0.296661 1.119816 0.00055731 C 1.119816 0.297776 0.998582 0.579351 0.791311 0.790533 C 0.58013 1.001715 0.294643 1.119038 0.00133553 1.119038 C -0.295883 1.119038 -0.581369 1.001715 -0.78864 0.790533 C -0.999822 0.579351 -1.117145 0.297776 -1.117145 0.00055731 C -1.117145 -0.296661 -0.999822 -0.582148 -0.78864 -0.789418 C -0.581369 -1.0006 -0.295883 -1.117923 0.00133553 -1.117923 Z M 0.00133553 -1.117923 "
     transform="matrix(0.998844, 0, 0, -0.998844, 191.584604, 268.734932)"
     id="path55" />
  <path
     fill-rule="nonzero"
     fill="rgb(0%, 0%, 0%)"
     fill-opacity="1"
     stroke-width="1"
     stroke-linecap="butt"
     stroke-linejoin="round"
     stroke="rgb(0%, 0%, 0%)"
     stroke-opacity="1"
     stroke-miterlimit="10"
     d="M -0.000573293 -1.117565 C 0.296645 -1.117565 0.582132 -1.000242 0.789402 -0.78906 C 1.000584 -0.58179 1.117907 -0.296303 1.117907 0.000915331 C 1.117907 0.298134 1.000584 0.579709 0.789402 0.790891 C 0.582132 1.002073 0.296645 1.119396 -0.000573293 1.119396 C -0.297792 1.119396 -0.579367 1.002073 -0.790549 0.790891 C -1.001731 0.579709 -1.119054 0.298134 -1.119054 0.000915331 C -1.119054 -0.296303 -1.001731 -0.58179 -0.790549 -0.78906 C -0.579367 -1.000242 -0.297792 -1.117565 -0.000573293 -1.117565 Z M -0.000573293 -1.117565 "
     transform="matrix(0.998844, 0, 0, -0.998844, 325.469323, 294.629821)"
     id="path56" />
  <path
     fill-rule="nonzero"
     fill="rgb(0%, 0%, 0%)"
     fill-opacity="1"
     d="M 354.160156 306.691406 C 354.453125 306.691406 354.738281 306.574219 354.949219 306.363281 C 355.15625 306.152344 355.277344 305.871094 355.277344 305.574219 C 355.277344 305.277344 355.15625 304.992188 354.949219 304.785156 C 354.738281 304.574219 354.453125 304.457031 354.160156 304.457031 C 353.863281 304.457031 353.578125 304.574219 353.371094 304.785156 C 353.160156 304.992188 353.042969 305.277344 353.042969 305.574219 C 353.042969 305.871094 353.160156 306.152344 353.371094 306.363281 C 353.578125 306.574219 353.863281 306.691406 354.160156 306.691406 Z M 354.160156 306.691406 "
     id="path57" />
  <g
     clip-path="url(#clip-1)"
     id="g58">
    <path
       fill="none"
       stroke-width="1"
       stroke-linecap="butt"
       stroke-linejoin="round"
       stroke="rgb(0%, 0%, 0%)"
       stroke-opacity="1"
       stroke-miterlimit="10"
       d="M 0.0012524 -1.11885 C 0.29456 -1.11885 0.580047 -1.001527 0.791228 -0.790345 C 0.998499 -0.579164 1.119733 -0.297588 1.119733 -0.000369414 C 1.119733 0.296849 0.998499 0.582335 0.791228 0.789606 C 0.580047 1.000788 0.29456 1.118111 0.0012524 1.118111 C -0.295966 1.118111 -0.581452 1.000788 -0.788723 0.789606 C -0.999905 0.582335 -1.117228 0.296849 -1.117228 -0.000369414 C -1.117228 -0.297588 -0.999905 -0.579164 -0.788723 -0.790345 C -0.581452 -1.001527 -0.295966 -1.11885 0.0012524 -1.11885 Z M 0.0012524 -1.11885 "
       transform="matrix(0.998844, 0, 0, -0.998844, 354.158905, 305.57385)"
       id="path58" />
  </g>
  <path
     fill-rule="nonzero"
     fill="rgb(0%, 0%, 0%)"
     fill-opacity="1"
     stroke-width="1"
     stroke-linecap="butt"
     stroke-linejoin="round"
     stroke="rgb(0%, 0%, 0%)"
     stroke-opacity="1"
     stroke-miterlimit="10"
     d="M 0.00194743 -1.11663 C 0.295255 -1.11663 0.580742 -0.999307 0.791923 -0.792036 C 0.999194 -0.580854 1.116517 -0.295368 1.116517 0.00185063 C 1.116517 0.295158 0.999194 0.580645 0.791923 0.791826 C 0.580742 0.999097 0.295255 1.11642 0.00194743 1.11642 C -0.295271 1.11642 -0.580757 0.999097 -0.791939 0.791826 C -0.99921 0.580645 -1.116533 0.295158 -1.116533 0.00185063 C -1.116533 -0.295368 -0.99921 -0.580854 -0.791939 -0.792036 C -0.580757 -0.999307 -0.295271 -1.11663 0.00194743 -1.11663 Z M 0.00194743 -1.11663 "
     transform="matrix(0.998844, 0, 0, -0.998844, 344.595711, 304.138567)"
     id="path59" />
  <path
     fill-rule="nonzero"
     fill="rgb(0%, 0%, 0%)"
     fill-opacity="1"
     stroke-width="1"
     stroke-linecap="butt"
     stroke-linejoin="round"
     stroke="rgb(0%, 0%, 0%)"
     stroke-opacity="1"
     stroke-miterlimit="10"
     d="M -0.00126832 -1.11822 C 0.29595 -1.11822 0.581437 -1.000897 0.788707 -0.789715 C 0.999889 -0.582445 1.117212 -0.296958 1.117212 0.000260397 C 1.117212 0.297479 0.999889 0.579055 0.788707 0.790236 C 0.581437 1.001418 0.29595 1.118741 -0.00126832 1.118741 C -0.294576 1.118741 -0.580062 1.001418 -0.791244 0.790236 C -0.998515 0.579055 -1.119749 0.297479 -1.119749 0.000260397 C -1.119749 -0.296958 -0.998515 -0.582445 -0.791244 -0.789715 C -0.580062 -1.000897 -0.294576 -1.11822 -0.00126832 -1.11822 Z M -0.00126832 -1.11822 "
     transform="matrix(0.998844, 0, 0, -0.998844, 335.032517, 300.390885)"
     id="path60" />
  <g
     clip-path="url(#clip-2)"
     id="g61">
    <path
       fill-rule="nonzero"
       fill="rgb(0%, 0%, 0%)"
       fill-opacity="1"
       d="M 162.894531 307.328125 C 163.191406 307.328125 163.476562 307.210938 163.683594 307 C 163.894531 306.792969 164.011719 306.507812 164.011719 306.210938 C 164.011719 305.914062 163.894531 305.632812 163.683594 305.421875 C 163.476562 305.210938 163.191406 305.09375 162.894531 305.09375 C 162.597656 305.09375 162.316406 305.210938 162.105469 305.421875 C 161.894531 305.632812 161.777344 305.914062 161.777344 306.210938 C 161.777344 306.507812 161.894531 306.792969 162.105469 307 C 162.316406 307.210938 162.597656 307.328125 162.894531 307.328125 Z M 162.894531 307.328125 "
       id="path61" />
  </g>
  <g
     clip-path="url(#clip-3)"
     id="g62">
    <path
       fill="none"
       stroke-width="1"
       stroke-linecap="butt"
       stroke-linejoin="round"
       stroke="rgb(0%, 0%, 0%)"
       stroke-opacity="1"
       stroke-miterlimit="10"
       d="M -0.00049016 -1.117664 C 0.296728 -1.117664 0.582215 -1.000341 0.789486 -0.789159 C 1.000667 -0.581888 1.11799 -0.296402 1.11799 0.000816551 C 1.11799 0.298035 1.000667 0.579611 0.789486 0.790792 C 0.582215 1.001974 0.296728 1.119297 -0.00049016 1.119297 C -0.297709 1.119297 -0.579284 1.001974 -0.790466 0.790792 C -1.001648 0.579611 -1.118971 0.298035 -1.118971 0.000816551 C -1.118971 -0.296402 -1.001648 -0.581888 -0.790466 -0.789159 C -0.579284 -1.000341 -0.297709 -1.117664 -0.00049016 -1.117664 Z M -0.00049016 -1.117664 "
       transform="matrix(0.998844, 0, 0, -0.998844, 162.895021, 306.211753)"
       id="path62" />
  </g>
  <g
     clip-path="url(#clip-4)"
     id="g63">
    <path
       fill-rule="nonzero"
       fill="rgb(0%, 0%, 0%)"
       fill-opacity="1"
       d="M 363.722656 307.765625 C 364.019531 307.765625 364.300781 307.648438 364.511719 307.441406 C 364.722656 307.230469 364.839844 306.945312 364.839844 306.648438 C 364.839844 306.355469 364.722656 306.070312 364.511719 305.859375 C 364.300781 305.652344 364.019531 305.535156 363.722656 305.535156 C 363.425781 305.535156 363.140625 305.652344 362.933594 305.859375 C 362.722656 306.070312 362.605469 306.355469 362.605469 306.648438 C 362.605469 306.945312 362.722656 307.230469 362.933594 307.441406 C 363.140625 307.648438 363.425781 307.765625 363.722656 307.765625 Z M 363.722656 307.765625 "
       id="path63" />
  </g>
  <g
     clip-path="url(#clip-5)"
     id="g64">
    <path
       fill="none"
       stroke-width="1"
       stroke-linecap="butt"
       stroke-linejoin="round"
       stroke="rgb(0%, 0%, 0%)"
       stroke-opacity="1"
       stroke-miterlimit="10"
       d="M 0.000557373 -1.116604 C 0.297776 -1.116604 0.579351 -0.999281 0.790533 -0.79201 C 1.001715 -0.580829 1.119038 -0.295342 1.119038 0.00187632 C 1.119038 0.295184 1.001715 0.58067 0.790533 0.791852 C 0.579351 0.999123 0.297776 1.116446 0.000557373 1.116446 C -0.296661 1.116446 -0.582148 0.999123 -0.789418 0.791852 C -1.0006 0.58067 -1.117923 0.295184 -1.117923 0.00187632 C -1.117923 -0.295342 -1.0006 -0.580829 -0.789418 -0.79201 C -0.582148 -0.999281 -0.296661 -1.116604 0.000557373 -1.116604 Z M 0.000557373 -1.116604 "
       transform="matrix(0.998844, 0, 0, -0.998844, 363.7221, 306.650312)"
       id="path64" />
  </g>
  <g
     clip-path="url(#clip-6)"
     id="g65">
    <path
       fill-rule="nonzero"
       fill="rgb(0%, 0%, 0%)"
       fill-opacity="1"
       d="M 373.285156 308.144531 C 373.582031 308.144531 373.867188 308.027344 374.074219 307.820312 C 374.285156 307.609375 374.402344 307.324219 374.402344 307.027344 C 374.402344 306.734375 374.285156 306.449219 374.074219 306.238281 C 373.867188 306.03125 373.582031 305.914062 373.285156 305.914062 C 372.988281 305.914062 372.703125 306.03125 372.496094 306.238281 C 372.285156 306.449219 372.167969 306.734375 372.167969 307.027344 C 372.167969 307.324219 372.285156 307.609375 372.496094 307.820312 C 372.703125 308.027344 372.988281 308.144531 373.285156 308.144531 Z M 373.285156 308.144531 "
       id="path65" />
  </g>
  <g
     clip-path="url(#clip-7)"
     id="g66">
    <path
       fill="none"
       stroke-width="1"
       stroke-linecap="butt"
       stroke-linejoin="round"
       stroke="rgb(0%, 0%, 0%)"
       stroke-opacity="1"
       stroke-miterlimit="10"
       d="M -0.000137653 -1.116756 C 0.297081 -1.116756 0.582567 -0.999432 0.789838 -0.792162 C 1.00102 -0.58098 1.118343 -0.295494 1.118343 0.00172501 C 1.118343 0.295033 1.00102 0.580519 0.789838 0.791701 C 0.582567 0.998972 0.297081 1.116295 -0.000137653 1.116295 C -0.297356 1.116295 -0.582843 0.998972 -0.790113 0.791701 C -1.001295 0.580519 -1.118618 0.295033 -1.118618 0.00172501 C -1.118618 -0.295494 -1.001295 -0.58098 -0.790113 -0.792162 C -0.582843 -0.999432 -0.297356 -1.116756 -0.000137653 -1.116756 Z M -0.000137653 -1.116756 "
       transform="matrix(0.998844, 0, 0, -0.998844, 373.285294, 307.029067)"
       id="path66" />
  </g>
  <g
     clip-path="url(#clip-8)"
     id="g67">
    <path
       fill-rule="nonzero"
       fill="rgb(0%, 0%, 0%)"
       fill-opacity="1"
       d="M 382.847656 308.164062 C 383.144531 308.164062 383.429688 308.046875 383.636719 307.839844 C 383.847656 307.628906 383.964844 307.34375 383.964844 307.050781 C 383.964844 306.753906 383.847656 306.46875 383.636719 306.257812 C 383.429688 306.050781 383.144531 305.933594 382.847656 305.933594 C 382.550781 305.933594 382.269531 306.050781 382.058594 306.257812 C 381.847656 306.46875 381.730469 306.753906 381.730469 307.050781 C 381.730469 307.34375 381.847656 307.628906 382.058594 307.839844 C 382.269531 308.046875 382.550781 308.164062 382.847656 308.164062 Z M 382.847656 308.164062 "
       id="path67" />
  </g>
  <g
     clip-path="url(#clip-9)"
     id="g68">
    <path
       fill="none"
       stroke-width="1"
       stroke-linecap="butt"
       stroke-linejoin="round"
       stroke="rgb(0%, 0%, 0%)"
       stroke-opacity="1"
       stroke-miterlimit="10"
       d="M -0.000832679 -1.116352 C 0.296386 -1.116352 0.581872 -0.999029 0.789143 -0.791758 C 1.000325 -0.580576 1.117648 -0.29509 1.117648 -0.00178207 C 1.117648 0.295437 1.000325 0.580923 0.789143 0.792104 C 0.581872 0.999375 0.296386 1.116698 -0.000832679 1.116698 C -0.298051 1.116698 -0.579627 0.999375 -0.790808 0.792104 C -1.00199 0.580923 -1.119313 0.295437 -1.119313 -0.00178207 C -1.119313 -0.29509 -1.00199 -0.580576 -0.790808 -0.791758 C -0.579627 -0.999029 -0.298051 -1.116352 -0.000832679 -1.116352 Z M -0.000832679 -1.116352 "
       transform="matrix(0.998844, 0, 0, -0.998844, 382.848488, 307.049001)"
       id="path68" />
  </g>
  <g
     clip-path="url(#clip-10)"
     id="g69">
    <path
       fill-rule="nonzero"
       fill="rgb(0%, 0%, 0%)"
       fill-opacity="1"
       d="M 153.332031 308.207031 C 153.628906 308.207031 153.910156 308.089844 154.121094 307.878906 C 154.332031 307.667969 154.449219 307.386719 154.449219 307.089844 C 154.449219 306.792969 154.332031 306.507812 154.121094 306.300781 C 153.910156 306.089844 153.628906 305.972656 153.332031 305.972656 C 153.035156 305.972656 152.75 306.089844 152.542969 306.300781 C 152.332031 306.507812 152.214844 306.792969 152.214844 307.089844 C 152.214844 307.386719 152.332031 307.667969 152.542969 307.878906 C 152.75 308.089844 153.035156 308.207031 153.332031 308.207031 Z M 153.332031 308.207031 "
       id="path69" />
  </g>
  <g
     clip-path="url(#clip-11)"
     id="g70">
    <path
       fill="none"
       stroke-width="1"
       stroke-linecap="butt"
       stroke-linejoin="round"
       stroke="rgb(0%, 0%, 0%)"
       stroke-opacity="1"
       stroke-miterlimit="10"
       d="M 0.000204866 -1.119455 C 0.297423 -1.119455 0.578999 -1.002132 0.790181 -0.79095 C 1.001362 -0.579769 1.118685 -0.298193 1.118685 -0.000974673 C 1.118685 0.296244 1.001362 0.58173 0.790181 0.789001 C 0.578999 1.000183 0.297423 1.117506 0.000204866 1.117506 C -0.297014 1.117506 -0.5825 1.000183 -0.789771 0.789001 C -1.000953 0.58173 -1.118276 0.296244 -1.118276 -0.000974673 C -1.118276 -0.298193 -1.000953 -0.579769 -0.789771 -0.79095 C -0.5825 -1.002132 -0.297014 -1.119455 0.000204866 -1.119455 Z M 0.000204866 -1.119455 "
       transform="matrix(0.998844, 0, 0, -0.998844, 153.331827, 307.08887)"
       id="path70" />
  </g>
  <g
     clip-path="url(#clip-12)"
     id="g71">
    <path
       fill-rule="nonzero"
       fill="rgb(0%, 0%, 0%)"
       fill-opacity="1"
       d="M 392.410156 308.304688 C 392.707031 308.304688 392.992188 308.1875 393.203125 307.976562 C 393.410156 307.769531 393.527344 307.484375 393.527344 307.1875 C 393.527344 306.890625 393.410156 306.609375 393.203125 306.398438 C 392.992188 306.191406 392.707031 306.070312 392.410156 306.070312 C 392.117188 306.070312 391.832031 306.191406 391.621094 306.398438 C 391.414062 306.609375 391.296875 306.890625 391.296875 307.1875 C 391.296875 307.484375 391.414062 307.769531 391.621094 307.976562 C 391.832031 308.1875 392.117188 308.304688 392.410156 308.304688 Z M 392.410156 308.304688 "
       id="path71" />
  </g>
  <g
     clip-path="url(#clip-13)"
     id="g72">
    <path
       fill="none"
       stroke-width="1"
       stroke-linecap="butt"
       stroke-linejoin="round"
       stroke="rgb(0%, 0%, 0%)"
       stroke-opacity="1"
       stroke-miterlimit="10"
       d="M -0.00152771 -1.117437 C 0.295691 -1.117437 0.581177 -1.000114 0.792359 -0.788932 C 0.99963 -0.581661 1.116953 -0.296175 1.116953 0.00104381 C 1.116953 0.298262 0.99963 0.579838 0.792359 0.79102 C 0.581177 0.99829 0.295691 1.119524 -0.00152771 1.119524 C -0.294836 1.119524 -0.580322 0.99829 -0.791503 0.79102 C -0.998774 0.579838 -1.116097 0.298262 -1.116097 0.00104381 C -1.116097 -0.296175 -0.998774 -0.581661 -0.791503 -0.788932 C -0.580322 -1.000114 -0.294836 -1.117437 -0.00152771 -1.117437 Z M -0.00152771 -1.117437 "
       transform="matrix(0.998844, 0, 0, -0.998844, 392.411682, 307.188543)"
       id="path72" />
  </g>
  <g
     clip-path="url(#clip-14)"
     id="g73">
    <path
       fill-rule="nonzero"
       fill="rgb(0%, 0%, 0%)"
       fill-opacity="1"
       d="M 401.976562 308.324219 C 402.269531 308.324219 402.554688 308.207031 402.765625 308 C 402.972656 307.789062 403.089844 307.503906 403.089844 307.207031 C 403.089844 306.914062 402.972656 306.628906 402.765625 306.417969 C 402.554688 306.210938 402.269531 306.089844 401.976562 306.089844 C 401.679688 306.089844 401.394531 306.210938 401.183594 306.417969 C 400.976562 306.628906 400.859375 306.914062 400.859375 307.207031 C 400.859375 307.503906 400.976562 307.789062 401.183594 308 C 401.394531 308.207031 401.679688 308.324219 401.976562 308.324219 Z M 401.976562 308.324219 "
       id="path73" />
  </g>
  <g
     clip-path="url(#clip-15)"
     id="g74">
    <path
       fill="none"
       stroke-width="1"
       stroke-linecap="butt"
       stroke-linejoin="round"
       stroke="rgb(0%, 0%, 0%)"
       stroke-opacity="1"
       stroke-miterlimit="10"
       d="M 0.00168804 -1.117033 C 0.294996 -1.117033 0.580482 -0.99971 0.791664 -0.792439 C 0.998935 -0.581257 1.116258 -0.295771 1.116258 0.0014475 C 1.116258 0.294755 0.998935 0.580242 0.791664 0.791423 C 0.580482 0.998694 0.294996 1.119928 0.00168804 1.119928 C -0.295531 1.119928 -0.581017 0.998694 -0.792198 0.791423 C -0.999469 0.580242 -1.116793 0.294755 -1.116793 0.0014475 C -1.116793 -0.295771 -0.999469 -0.581257 -0.792198 -0.792439 C -0.581017 -0.99971 -0.295531 -1.117033 0.00168804 -1.117033 Z M 0.00168804 -1.117033 "
       transform="matrix(0.998844, 0, 0, -0.998844, 401.974876, 307.208477)"
       id="path74" />
  </g>
  <path
     fill="none"
     stroke-width="0.8"
     stroke-linecap="butt"
     stroke-linejoin="round"
     stroke="rgb(0%, 0%, 0%)"
     stroke-opacity="1"
     stroke-miterlimit="10"
     d="M 57.599334 38.017851 L 57.599334 34.517711 "
     transform="matrix(0.998844, 0, 0, -0.998844, 0.166474, 345.200462)"
     id="path75" />
  <g
     fill="rgb(0%, 0%, 0%)"
     fill-opacity="1"
     id="g75">
    <use
       xlink:href="#glyph-0-0"
       x="54.523873"
       y="321.80529"
       id="use75" />
  </g>
  <path
     fill="none"
     stroke-width="0.8"
     stroke-linecap="butt"
     stroke-linejoin="round"
     stroke="rgb(0%, 0%, 0%)"
     stroke-opacity="1"
     stroke-miterlimit="10"
     d="M 105.471083 38.017851 L 105.471083 34.517711 "
     transform="matrix(0.998844, 0, 0, -0.998844, 0.166474, 345.200462)"
     id="path76" />
  <g
     fill="rgb(0%, 0%, 0%)"
     fill-opacity="1"
     id="g76">
    <use
       xlink:href="#glyph-0-1"
       x="102.339844"
       y="321.80529"
       id="use76" />
  </g>
  <path
     fill="none"
     stroke-width="0.8"
     stroke-linecap="butt"
     stroke-linejoin="round"
     stroke="rgb(0%, 0%, 0%)"
     stroke-opacity="1"
     stroke-miterlimit="10"
     d="M 153.342832 38.017851 L 153.342832 34.517711 "
     transform="matrix(0.998844, 0, 0, -0.998844, 0.166474, 345.200462)"
     id="path77" />
  <g
     fill="rgb(0%, 0%, 0%)"
     fill-opacity="1"
     id="g78">
    <use
       xlink:href="#glyph-0-2"
       x="146.979803"
       y="321.80529"
       id="use77" />
    <use
       xlink:href="#glyph-0-0"
       x="153.332451"
       y="321.80529"
       id="use78" />
  </g>
  <path
     fill="none"
     stroke-width="0.8"
     stroke-linecap="butt"
     stroke-linejoin="round"
     stroke="rgb(0%, 0%, 0%)"
     stroke-opacity="1"
     stroke-miterlimit="10"
     d="M 201.214582 38.017851 L 201.214582 34.517711 "
     transform="matrix(0.998844, 0, 0, -0.998844, 0.166474, 345.200462)"
     id="path78" />
  <g
     fill="rgb(0%, 0%, 0%)"
     fill-opacity="1"
     id="g80">
    <use
       xlink:href="#glyph-0-2"
       x="194.795775"
       y="321.80529"
       id="use79" />
    <use
       xlink:href="#glyph-0-1"
       x="201.148422"
       y="321.80529"
       id="use80" />
  </g>
  <path
     fill="none"
     stroke-width="0.8"
     stroke-linecap="butt"
     stroke-linejoin="round"
     stroke="rgb(0%, 0%, 0%)"
     stroke-opacity="1"
     stroke-miterlimit="10"
     d="M 249.086331 38.017851 L 249.086331 34.517711 "
     transform="matrix(0.998844, 0, 0, -0.998844, 0.166474, 345.200462)"
     id="path80" />
  <g
     fill="rgb(0%, 0%, 0%)"
     fill-opacity="1"
     id="g82">
    <use
       xlink:href="#glyph-0-3"
       x="242.611746"
       y="321.80529"
       id="use81" />
    <use
       xlink:href="#glyph-0-0"
       x="248.964393"
       y="321.80529"
       id="use82" />
  </g>
  <path
     fill="none"
     stroke-width="0.8"
     stroke-linecap="butt"
     stroke-linejoin="round"
     stroke="rgb(0%, 0%, 0%)"
     stroke-opacity="1"
     stroke-miterlimit="10"
     d="M 296.95808 38.017851 L 296.95808 34.517711 "
     transform="matrix(0.998844, 0, 0, -0.998844, 0.166474, 345.200462)"
     id="path82" />
  <g
     fill="rgb(0%, 0%, 0%)"
     fill-opacity="1"
     id="g84">
    <use
       xlink:href="#glyph-0-3"
       x="290.427717"
       y="321.80529"
       id="use83" />
    <use
       xlink:href="#glyph-0-1"
       x="296.780364"
       y="321.80529"
       id="use84" />
  </g>
  <path
     fill="none"
     stroke-width="0.8"
     stroke-linecap="butt"
     stroke-linejoin="round"
     stroke="rgb(0%, 0%, 0%)"
     stroke-opacity="1"
     stroke-miterlimit="10"
     d="M 344.829829 38.017851 L 344.829829 34.517711 "
     transform="matrix(0.998844, 0, 0, -0.998844, 0.166474, 345.200462)"
     id="path84" />
  <g
     fill="rgb(0%, 0%, 0%)"
     fill-opacity="1"
     id="g86">
    <use
       xlink:href="#glyph-0-4"
       x="338.243688"
       y="321.80529"
       id="use85" />
    <use
       xlink:href="#glyph-0-0"
       x="344.596335"
       y="321.80529"
       id="use86" />
  </g>
  <path
     fill="none"
     stroke-width="0.8"
     stroke-linecap="butt"
     stroke-linejoin="round"
     stroke="rgb(0%, 0%, 0%)"
     stroke-opacity="1"
     stroke-miterlimit="10"
     d="M 392.697668 38.017851 L 392.697668 34.517711 "
     transform="matrix(0.998844, 0, 0, -0.998844, 0.166474, 345.200462)"
     id="path86" />
  <g
     fill="rgb(0%, 0%, 0%)"
     fill-opacity="1"
     id="g88">
    <use
       xlink:href="#glyph-0-4"
       x="386.059659"
       y="321.80529"
       id="use87" />
    <use
       xlink:href="#glyph-0-1"
       x="392.412306"
       y="321.80529"
       id="use88" />
  </g>
  <g
     fill="rgb(0%, 0%, 0%)"
     fill-opacity="1"
     id="g95">
    <use
       xlink:href="#glyph-0-5"
       x="210.380046"
       y="335.46136"
       id="use89" />
    <use
       xlink:href="#glyph-0-6"
       x="216.492971"
       y="335.46136"
       id="use90" />
    <use
       xlink:href="#glyph-0-7"
       x="222.825642"
       y="335.46136"
       id="use91" />
    <use
       xlink:href="#glyph-0-8"
       x="226.74111"
       y="335.46136"
       id="use92" />
    <use
       xlink:href="#glyph-0-9"
       x="233.083769"
       y="335.46136"
       id="use93" />
    <use
       xlink:href="#glyph-0-10"
       x="239.226659"
       y="335.46136"
       id="use94" />
    <use
       xlink:href="#glyph-0-11"
       x="245.569318"
       y="335.46136"
       id="use95" />
  </g>
  <g
     fill="rgb(0%, 0%, 0%)"
     fill-opacity="1"
     id="g97">
    <use
       xlink:href="#glyph-0-9"
       x="249.456069"
       y="335.46136"
       id="use96" />
    <use
       xlink:href="#glyph-0-9"
       x="255.59896"
       y="335.46136"
       id="use97" />
  </g>
  <path
     fill="none"
     stroke-width="0.8"
     stroke-linecap="butt"
     stroke-linejoin="round"
     stroke="rgb(0%, 0%, 0%)"
     stroke-opacity="1"
     stroke-miterlimit="10"
     d="M 57.599334 38.017851 L 54.099193 38.017851 "
     transform="matrix(0.998844, 0, 0, -0.998844, 0.166474, 345.200462)"
     id="path97" />
  <g
     fill="rgb(0%, 0%, 0%)"
     fill-opacity="1"
     id="g98">
    <use
       xlink:href="#glyph-0-0"
       x="44.355954"
       y="311.020897"
       id="use98" />
  </g>
  <path
     fill="none"
     stroke-width="0.8"
     stroke-linecap="butt"
     stroke-linejoin="round"
     stroke="rgb(0%, 0%, 0%)"
     stroke-opacity="1"
     stroke-miterlimit="10"
     d="M 57.599334 77.931181 L 54.099193 77.931181 "
     transform="matrix(0.998844, 0, 0, -0.998844, 0.166474, 345.200462)"
     id="path98" />
  <g
     fill="rgb(0%, 0%, 0%)"
     fill-opacity="1"
     id="g100">
    <use
       xlink:href="#glyph-0-3"
       x="38.003931"
       y="271.151938"
       id="use99" />
    <use
       xlink:href="#glyph-0-0"
       x="44.356578"
       y="271.151938"
       id="use100" />
  </g>
  <path
     fill="none"
     stroke-width="0.8"
     stroke-linecap="butt"
     stroke-linejoin="round"
     stroke="rgb(0%, 0%, 0%)"
     stroke-opacity="1"
     stroke-miterlimit="10"
     d="M 57.599334 117.844511 L 54.099193 117.844511 "
     transform="matrix(0.998844, 0, 0, -0.998844, 0.166474, 345.200462)"
     id="path100" />
  <g
     fill="rgb(0%, 0%, 0%)"
     fill-opacity="1"
     id="g102">
    <use
       xlink:href="#glyph-0-12"
       x="38.003931"
       y="231.282979"
       id="use101" />
    <use
       xlink:href="#glyph-0-0"
       x="44.356578"
       y="231.282979"
       id="use102" />
  </g>
  <path
     fill="none"
     stroke-width="0.8"
     stroke-linecap="butt"
     stroke-linejoin="round"
     stroke="rgb(0%, 0%, 0%)"
     stroke-opacity="1"
     stroke-miterlimit="10"
     d="M 57.599334 157.761752 L 54.099193 157.761752 "
     transform="matrix(0.998844, 0, 0, -0.998844, 0.166474, 345.200462)"
     id="path102" />
  <g
     fill="rgb(0%, 0%, 0%)"
     fill-opacity="1"
     id="g104">
    <use
       xlink:href="#glyph-0-13"
       x="38.003931"
       y="191.41402"
       id="use103" />
    <use
       xlink:href="#glyph-0-0"
       x="44.356578"
       y="191.41402"
       id="use104" />
  </g>
  <path
     fill="none"
     stroke-width="0.8"
     stroke-linecap="butt"
     stroke-linejoin="round"
     stroke="rgb(0%, 0%, 0%)"
     stroke-opacity="1"
     stroke-miterlimit="10"
     d="M 57.599334 197.675082 L 54.099193 197.675082 "
     transform="matrix(0.998844, 0, 0, -0.998844, 0.166474, 345.200462)"
     id="path104" />
  <g
     fill="rgb(0%, 0%, 0%)"
     fill-opacity="1"
     id="g106">
    <use
       xlink:href="#glyph-0-14"
       x="38.003931"
       y="151.545061"
       id="use105" />
    <use
       xlink:href="#glyph-0-0"
       x="44.356578"
       y="151.545061"
       id="use106" />
  </g>
  <path
     fill="none"
     stroke-width="0.8"
     stroke-linecap="butt"
     stroke-linejoin="round"
     stroke="rgb(0%, 0%, 0%)"
     stroke-opacity="1"
     stroke-miterlimit="10"
     d="M 57.599334 237.592323 L 54.099193 237.592323 "
     transform="matrix(0.998844, 0, 0, -0.998844, 0.166474, 345.200462)"
     id="path106" />
  <g
     fill="rgb(0%, 0%, 0%)"
     fill-opacity="1"
     id="g109">
    <use
       xlink:href="#glyph-0-2"
       x="31.651908"
       y="111.676102"
       id="use107" />
    <use
       xlink:href="#glyph-0-0"
       x="38.004555"
       y="111.676102"
       id="use108" />
    <use
       xlink:href="#glyph-0-0"
       x="44.357202"
       y="111.676102"
       id="use109" />
  </g>
  <path
     fill="none"
     stroke-width="0.8"
     stroke-linecap="butt"
     stroke-linejoin="round"
     stroke="rgb(0%, 0%, 0%)"
     stroke-opacity="1"
     stroke-miterlimit="10"
     d="M 57.599334 277.505653 L 54.099193 277.505653 "
     transform="matrix(0.998844, 0, 0, -0.998844, 0.166474, 345.200462)"
     id="path109" />
  <g
     fill="rgb(0%, 0%, 0%)"
     fill-opacity="1"
     id="g112">
    <use
       xlink:href="#glyph-0-2"
       x="31.651908"
       y="71.807143"
       id="use110" />
    <use
       xlink:href="#glyph-0-3"
       x="38.004555"
       y="71.807143"
       id="use111" />
    <use
       xlink:href="#glyph-0-0"
       x="44.357202"
       y="71.807143"
       id="use112" />
  </g>
  <g
     fill="rgb(0%, 0%, 0%)"
     fill-opacity="1"
     id="g119">
    <use
       xlink:href="#glyph-1-0"
       x="25.580809"
       y="195.746754"
       id="use113" />
    <use
       xlink:href="#glyph-1-1"
       x="25.580809"
       y="187.376442"
       id="use114" />
    <use
       xlink:href="#glyph-1-2"
       x="25.580809"
       y="184.200118"
       id="use115" />
    <use
       xlink:href="#glyph-1-3"
       x="25.580809"
       y="176.728765"
       id="use116" />
    <use
       xlink:href="#glyph-1-4"
       x="25.580809"
       y="170.61584"
       id="use117" />
    <use
       xlink:href="#glyph-1-5"
       x="25.580809"
       y="164.273182"
       id="use118" />
    <use
       xlink:href="#glyph-1-6"
       x="25.580809"
       y="158.130291"
       id="use119" />
  </g>
  <path
     fill="none"
     stroke-width="0.8"
     stroke-linecap="square"
     stroke-linejoin="miter"
     stroke="rgb(0%, 0%, 0%)"
     stroke-opacity="1"
     stroke-miterlimit="10"
     d="M 57.599334 38.017851 L 57.599334 304.126272 "
     transform="matrix(0.998844, 0, 0, -0.998844, 0.166474, 345.200462)"
     id="path119" />
  <path
     fill="none"
     stroke-width="0.8"
     stroke-linecap="square"
     stroke-linejoin="miter"
     stroke="rgb(0%, 0%, 0%)"
     stroke-opacity="1"
     stroke-miterlimit="10"
     d="M 414.71922 38.017851 L 414.71922 304.126272 "
     transform="matrix(0.998844, 0, 0, -0.998844, 0.166474, 345.200462)"
     id="path120" />
  <path
     fill="none"
     stroke-width="0.8"
     stroke-linecap="square"
     stroke-linejoin="miter"
     stroke="rgb(0%, 0%, 0%)"
     stroke-opacity="1"
     stroke-miterlimit="10"
     d="M 57.599334 38.017851 L 414.71922 38.017851 "
     transform="matrix(0.998844, 0, 0, -0.998844, 0.166474, 345.200462)"
     id="path121" />
  <path
     fill="none"
     stroke-width="0.8"
     stroke-linecap="square"
     stroke-linejoin="miter"
     stroke="rgb(0%, 0%, 0%)"
     stroke-opacity="1"
     stroke-miterlimit="10"
     d="M 57.599334 304.126272 L 414.71922 304.126272 "
     transform="matrix(0.998844, 0, 0, -0.998844, 0.166474, 345.200462)"
     id="path122" />
</svg>
